<svg xmlns="http://www.w3.org/2000/svg" viewBox="0 0 32 32">
  <rect width="32" height="32" rx="8" fill="#433224"/>
  <path d="M16 4 L26 12 L26 26 C26 27.1 25.1 28 24 28 L8 28 C6.9 28 6 27.1 6 26 L6 12 Z" stroke="#decbba" stroke-width="2" fill="none" stroke-linejoin="round"/>
  <path d="M15 11 H17 V24 H15 Z" fill="#decbba"/>
  <path d="M17 11 H21 C23 11 24 12.5 24 15 C24 17.5 23 19 21 19 H17 Z" fill="none" stroke="#decbba" stroke-width="1.8"/>
  <path d="M15 17 H11 C9 17 8 18.5 8 21 C8 23.5 9 24 11 24 H15 Z" fill="none" stroke="#decbba" stroke-width="1.8"/>
</svg>
